# xmcd
#
# Track frame offsets:
#	150
#	21431
#	41503
#	62027
#	81952
#	101082
#	119313
#	139117
#
# Disc length: 2094 seconds
#
# Revision: 2
# Processed by: cddbd v1.5.2PL0 Copyright (c) Steve Scherf et al.
# Submitted via: EasyCDDAExtractor 15.3.0.1
#
DISCID=6b082c08
DTITLE=Ashley - Yo Soy La Bomba
DYEAR=1997
DGENRE=Latin
TTITLE0=Yo Soy La Bomba
TTITLE1=Ese Moreno
TTITLE2=Mi Novio Se Curo
TTITLE3=El Truco
TTITLE4=Yo Tengo Un Ritmo
TTITLE5=Donde Estas Corazon
TTITLE6=Mujer De Un Solo Hombre
TTITLE7=Secretaria
EXTD=
EXTT0=
EXTT1=
EXTT2=
EXTT3=
EXTT4=
EXTT5=
EXTT6=
EXTT7=
PLAYORDER=
